<?xml version="1.0" encoding="UTF-8" standalone="no"?>
<!-- Created with Inkscape (http://www.inkscape.org/) -->

<svg
   xmlns:dc="http://purl.org/dc/elements/1.1/"
   xmlns:cc="http://creativecommons.org/ns#"
   xmlns:rdf="http://www.w3.org/1999/02/22-rdf-syntax-ns#"
   xmlns:svg="http://www.w3.org/2000/svg"
   xmlns="http://www.w3.org/2000/svg"
   xmlns:sodipodi="http://sodipodi.sourceforge.net/DTD/sodipodi-0.dtd"
   xmlns:inkscape="http://www.inkscape.org/namespaces/inkscape"
   width="400"
   height="400"
   viewBox="0 0 399.99998 399.99998"
   id="svg2"
   version="1.1"
   inkscape:version="0.91 r13725"
   sodipodi:docname="OutdoorTracker.svg"
   inkscape:export-filename="C:\Users\accou\Desktop\OutdoorTracker.png"
   inkscape:export-xdpi="230.39999"
   inkscape:export-ydpi="230.39999">
  <defs
     id="defs4" />
  <sodipodi:namedview
     id="base"
     pagecolor="#ffffff"
     bordercolor="#666666"
     borderopacity="1.0"
     inkscape:pageopacity="0.0"
     inkscape:pageshadow="2"
     inkscape:zoom="1.6401257"
     inkscape:cx="124.21177"
     inkscape:cy="129.54721"
     inkscape:document-units="px"
     inkscape:current-layer="layer1"
     showgrid="false"
     showguides="true"
     inkscape:guide-bbox="true"
     inkscape:window-width="1824"
     inkscape:window-height="1153"
     inkscape:window-x="-8"
     inkscape:window-y="-8"
     inkscape:window-maximized="1"
     fit-margin-top="0"
     fit-margin-left="0"
     fit-margin-right="0"
     fit-margin-bottom="0"
     units="px" />
  <metadata
     id="metadata7">
    <rdf:RDF>
      <cc:Work
         rdf:about="">
        <dc:format>image/svg+xml</dc:format>
        <dc:type
           rdf:resource="http://purl.org/dc/dcmitype/StillImage" />
        <dc:title></dc:title>
      </cc:Work>
    </rdf:RDF>
  </metadata>
  <g
     inkscape:label="Layer 1"
     inkscape:groupmode="layer"
     id="layer1"
     transform="translate(-93.917306,18.564189)">
    <g
       id="g4405" />
    <g
       id="g4597"
       transform="matrix(1.1635211,0,0,1.1635211,-14.920966,-99.103874)">
      <path
         sodipodi:nodetypes="ccccccccc"
         inkscape:connector-curvature="0"
         id="path3336-0"
         d="m 95.599541,314.66153 95.276639,-184.20518 73.32728,31.44314 83.8515,-18.12084 87.5949,47.05175 -89.78778,188.9941 -92.01687,-52.21117 -78.71262,17.77087 z"
         style="fill:#ffffff;fill-opacity:1;fill-rule:evenodd;stroke:none;stroke-width:2.20000005;stroke-linecap:butt;stroke-linejoin:miter;stroke-miterlimit:4;stroke-dasharray:none;stroke-opacity:1" />
      <path
         sodipodi:nodetypes="caaaaaaaaaaaaaacaaaaaaaac"
         inkscape:connector-curvature="0"
         id="path4213"
         d="m 320.34671,365.15796 c 0,0 -0.97172,-4.81799 -2.26343,-6.84419 -0.90174,-1.41449 -2.46769,-2.27375 -3.66461,-3.44903 -3.00928,-2.95486 -5.3984,-6.61342 -8.83815,-9.05373 -0.97008,-0.68822 -2.41257,-0.64825 -3.23348,-1.50895 -2.09057,-2.19189 -2.26415,-5.61939 -3.44903,-8.40703 -0.76772,-1.80619 -1.69982,-3.54496 -2.37122,-5.38912 -1.22908,-3.37597 -1.46112,-7.10917 -3.0179,-10.34711 -1.40801,-2.9285 -4.21079,-5.04065 -5.60469,-7.9759 -1.02462,-2.15764 -1.54991,-4.54159 -1.94008,-6.89807 -0.86984,-5.25351 -1.31623,-10.64616 -0.86226,-15.9518 0.21993,-2.57039 0.95121,-5.08361 1.72452,-7.54476 1.09193,-3.47519 3.06876,-6.63661 4.09573,-10.13155 1.19589,-4.06981 2.09178,-8.27009 2.37122,-12.50276 0.0824,-1.24814 -0.24797,-2.49655 -0.20848,-3.74679 0.0614,-1.94284 0.38103,-3.69766 0.69078,-5.79036 -0.45236,-2.0927 0.83115,-4.24517 0.75989,-6.38849 -0.0489,-1.47006 -0.80069,-2.86661 -0.81108,-4.33745 -0.0149,-2.11449 0.95448,-4.14044 1.07783,-6.25138 0.15532,-2.65798 0.21004,-5.39174 -0.43113,-7.9759 -0.74325,-2.99559 -3.57409,-5.33582 -3.88017,-8.40702 -0.15383,-1.54349 0.37655,-3.14331 1.07782,-4.52687 1.70542,-3.36469 4.99327,-5.66067 7.32921,-8.62259 1.43289,-1.81686 3.2277,-3.45976 4.09573,-5.60468 0.97971,-2.42088 1.07782,-7.76034 1.07782,-7.76034"
         style="display:inline;fill:none;fill-rule:evenodd;stroke:#4646ff;stroke-width:1.70000005;stroke-linecap:round;stroke-linejoin:round;stroke-miterlimit:4;stroke-dasharray:none;stroke-opacity:1" />
      <path
         sodipodi:nodetypes="scssssccaascsascssacccscs"
         inkscape:connector-curvature="0"
         id="path4197"
         d="m 298.74339,167.48794 c -9.82715,-1.80031 -30.84341,5.1789 -41.32418,6.10638 -6.74629,-1.73999 -9.45688,-1.7684 -11.23216,-1.7453 -15.20686,0.19793 -23.96518,-4.76662 -37.71388,1.038 -18.50886,7.81434 -20.76114,13.59152 -33.3547,27.75835 -3.8547,4.33626 -8.50974,10.07396 -15.26829,15.44496 -3.46084,2.75033 -8.48839,5.73229 -18.98933,11.49363 -5.05442,8.7769 -12.6139,23.53195 -17.5141,33.38375 19.80069,-4.21802 24.02216,-4.87073 35.15306,-9.77134 10.54146,-4.6411 20.23654,-11.2064 29.30614,-18.30602 10.95211,-8.57324 16.69885,-24.83959 29.9561,-29.04606 7.60129,-2.41186 18.11547,-0.35342 23.45887,3.3843 8.79243,0.39646 12.01203,1.93753 17.23811,1.46481 9.71654,-0.87889 17.00201,-7.7436 26.12402,-8.35393 8.4424,-0.56485 16.79877,2.32961 24.99219,4.44174 2.23887,0.57714 4.25321,0.81711 6.75684,1.40739 1.74916,1.66812 34.4442,19.05679 53.27441,19.06722 10.46719,0.006 20.75433,-4.72145 29.73171,-10.10373 7.75168,-4.64742 15.36211,-10.49989 22.81706,-16.06179 3.78324,-2.82256 2.61042,-1.97535 11.11157,-8.77784 -12.83356,-6.90331 -19.58132,-11.50724 -27.22555,-15.36856 -6.43769,3.22578 -24.52669,14.34785 -35.80687,16.79362 -10.36403,0.0207 -19.74074,-3.92348 -29.84232,-9.16102 -3.27268,-1.69684 -7.05148,-4.00802 -8.77269,-6.11214 -2.79902,-0.16405 -26.42837,-7.79522 -32.87601,-8.97642 z"
         style="display:inline;fill:#4646ff;fill-opacity:1;fill-rule:evenodd;stroke:none;stroke-width:1px;stroke-linecap:butt;stroke-linejoin:miter;stroke-opacity:1" />
      <path
         sodipodi:nodetypes="caaazasscsssascsaaascc"
         inkscape:connector-curvature="0"
         id="path4220"
         d="m 366.52402,335.26917 c -13.37774,6.70531 -4.51329,-10.7741 -8.75947,-14.49387 -3.36349,-2.94651 -9.22219,-2.11811 -12.2941,-5.36746 -3.32424,-3.51624 -0.57233,-11.7815 -5.05291,-13.60876 -12.21728,-4.98243 -32.80069,18.86718 -35.79856,16.8891 -2.99787,-1.97808 3.59125,-14.35031 6.32514,-21.19896 3.74698,-9.38654 16.09896,-24.93387 13.72217,-27.03748 -3.41914,-3.02616 -17.89309,11.55423 -28.57332,13.85457 -6.39867,1.37816 -19.14776,6.43143 -21.41966,3.14516 -5.24965,-0.46189 -6.67567,-1.28399 -10.08149,-4.57171 -4.15804,-4.01385 -2.88884,-10.72501 -3.15426,-16.73212 -0.37912,-8.5805 -7.0144,-10.96496 -6.185,-19.17829 1.23842,-12.26367 18.93542,-24.34177 11.42928,-33.40671 -2.94143,-3.55227 -9.08621,2.07914 -13.69666,1.95894 -4.6576,-0.12143 -8.4253,-3.70873 -13.86816,-3.58137 -4.36505,-3.32167 -11.73171,-4.25559 -17.4869,-2.58513 -8.65953,2.51345 -13.67214,11.84504 -19.62284,18.61956 -6.10162,6.94632 -19.65055,13.78232 -16.33815,22.41419 1.86919,4.87096 12.32249,-1.04063 15.3142,3.23369 3.84294,5.49047 -7.6831,15.28061 -2.83226,19.90477 3.6494,3.47887 11.95546,-6.73642 14.52634,-6.45872 2.39773,0.80579 1.21056,2.52312 2.61329,3.177"
         style="fill:none;fill-rule:evenodd;stroke:#000000;stroke-width:1.79999995;stroke-linecap:butt;stroke-linejoin:miter;stroke-miterlimit:4;stroke-dasharray:10.8, 3.6;stroke-dashoffset:1.43999982;stroke-opacity:1" />
      <rect
         inkscape:transform-center-y="3.1911244"
         inkscape:transform-center-x="-2.9428148"
         transform="matrix(0.99537248,-0.09609171,0.10854001,0.99409208,0,0)"
         y="274.866"
         x="191.57329"
         height="9.555275"
         width="18.279755"
         id="rect4222"
         style="fill:#000000;fill-opacity:1;stroke:none;stroke-width:1;stroke-linecap:round;stroke-linejoin:miter;stroke-miterlimit:4;stroke-dasharray:none;stroke-dashoffset:0.48000002;stroke-opacity:1" />
      <rect
         transform="matrix(0.98571348,0.16843078,-0.16843078,0.98571348,0,0)"
         y="191.04605"
         x="277.94562"
         height="12.45582"
         width="9.7311096"
         id="rect4222-7"
         style="fill:#000000;fill-opacity:1;stroke:none;stroke-width:1;stroke-linecap:round;stroke-linejoin:miter;stroke-miterlimit:4;stroke-dasharray:none;stroke-dashoffset:0.48000002;stroke-opacity:1" />
      <rect
         inkscape:transform-center-y="-4.5761433"
         inkscape:transform-center-x="3.9653974"
         transform="matrix(0.97420807,-0.22565157,0.22565157,0.97420807,0,0)"
         y="257.28033"
         x="164.94435"
         height="11.288087"
         width="9.3418655"
         id="rect4222-4"
         style="fill:#000000;fill-opacity:1;stroke:none;stroke-width:1;stroke-linecap:round;stroke-linejoin:miter;stroke-miterlimit:4;stroke-dasharray:none;stroke-dashoffset:0.48000002;stroke-opacity:1" />
      <rect
         transform="matrix(0.99189674,-0.12704664,0.12704664,0.99189674,0,0)"
         y="285.97375"
         x="238.44342"
         height="11.288087"
         width="11.288088"
         id="rect4222-3"
         style="fill:#000000;fill-opacity:1;stroke:none;stroke-width:1;stroke-linecap:round;stroke-linejoin:miter;stroke-miterlimit:4;stroke-dasharray:none;stroke-dashoffset:0.48000002;stroke-opacity:1" />
      <rect
         y="225.04691"
         x="279.2291"
         height="14.012797"
         width="9.3418655"
         id="rect4222-0"
         style="fill:#000000;fill-opacity:1;stroke:none;stroke-width:1;stroke-linecap:round;stroke-linejoin:miter;stroke-miterlimit:4;stroke-dasharray:none;stroke-dashoffset:0.48000002;stroke-opacity:1" />
      <rect
         y="243.03841"
         x="259.86478"
         height="10.509599"
         width="7.3956428"
         id="rect4272"
         style="fill:#000000;fill-opacity:1;stroke:none;stroke-width:1;stroke-linecap:round;stroke-linejoin:miter;stroke-miterlimit:4;stroke-dasharray:none;stroke-dashoffset:0.48000002;stroke-opacity:1" />
      <rect
         inkscape:transform-center-y="5.4494142"
         inkscape:transform-center-x="5.4494252"
         transform="matrix(0.95982123,0.28061219,-0.28061219,0.95982123,0,0)"
         y="171.33768"
         x="256.39697"
         height="10.898843"
         width="10.509598"
         id="rect4272-7"
         style="fill:#000000;fill-opacity:1;stroke:none;stroke-width:1;stroke-linecap:round;stroke-linejoin:miter;stroke-miterlimit:4;stroke-dasharray:none;stroke-dashoffset:0.48000002;stroke-opacity:1" />
      <path
         sodipodi:nodetypes="ccccccccccccccccccsccscccccccccc"
         inkscape:connector-curvature="0"
         id="path4206"
         d="m 414.59671,226.44292 c -13.01606,0.44534 -24.27342,8.60137 -36.78587,10.93229 -10.95299,0.44138 -21.42404,-4.48368 -32.48628,-3.60994 -11.03228,-0.31148 -22.84236,1.30367 -31.03641,9.47142 -10.23925,8.37957 -19.12624,20.41011 -33.36989,21.67758 -8.80598,1.99698 -24.00243,-0.91285 -25.64707,-0.95396 -1.16693,0.003 -16.70146,-0.22705 -25.54434,0.36802 -10.07565,1.22506 -20.32953,7.22463 -22.51953,17.80469 -2.35654,6.45686 0.0701,12.36704 -2.03557,18.68404 -3.12915,4.99568 -5.35404,3.81052 -12.53076,7.61735 -3.51213,-0.53381 -6.15667,0.73313 -13.94318,1.96301 -13.07092,-0.76249 -19.66157,-14.45366 -34.16627,-12.11987 -15.03845,1.34616 -29.10854,6.70037 -44.16573,7.25861 -1.539831,2.7839 -2.503007,4.57324 -3.650152,6.99115 14.811752,-0.44405 32.573602,-5.59159 47.166422,-7.37181 12.62708,-2.04602 20.87023,11.93271 32.99168,12.62579 4.08544,0.84142 7.05681,-1.67119 12.02976,-1.70504 5.33111,-2.17695 9.60301,-3.06419 14.43483,-4.40615 9.34285,6.84707 19.49593,1.67263 21.90086,-0.66758 6.32929,-6.15898 9.47237,-15.23592 13.65053,-21.03184 0.58603,-4.97969 -3.50918,-4.11143 -5.28269,-1.74462 -4.24186,6.08611 -7.44528,14.46626 -13.36413,18.99784 -2.64874,2.02792 -9.21593,3.18561 -10.743,0.17471 6.66995,-9.14454 -0.0757,-21.97585 7.90662,-30.54098 9.81311,-8.96382 34.98072,-6.20752 36.31627,-6.3831 5.22384,0.17533 16.04628,3.71519 24.30903,1.78349 11.6331,-0.7534 22.06147,-5.94742 30.10712,-14.25781 8.37883,-8.05777 17.57767,-17.88284 30.22461,-17.21875 11.95075,-1.51658 23.52369,1.95696 35.2168,3.50586 14.53694,0.85428 27.06972,-10.35095 41.47091,-10.17694 1.70699,-3.34001 2.12129,-4.50734 3.42564,-7.61357 z"
         style="color:#000000;font-style:normal;font-variant:normal;font-weight:normal;font-stretch:normal;font-size:medium;line-height:normal;font-family:sans-serif;text-indent:0;text-align:start;text-decoration:none;text-decoration-line:none;text-decoration-style:solid;text-decoration-color:#000000;letter-spacing:normal;word-spacing:normal;text-transform:none;direction:ltr;block-progression:tb;writing-mode:lr-tb;baseline-shift:baseline;text-anchor:start;white-space:normal;clip-rule:nonzero;display:inline;overflow:visible;visibility:visible;opacity:1;isolation:auto;mix-blend-mode:normal;color-interpolation:sRGB;color-interpolation-filters:linearRGB;solid-color:#000000;solid-opacity:1;fill:#ffffff;fill-opacity:1;fill-rule:evenodd;stroke:#000000;stroke-width:1.39999998;stroke-linecap:butt;stroke-linejoin:round;stroke-miterlimit:4;stroke-dasharray:none;stroke-dashoffset:0;stroke-opacity:1;color-rendering:auto;image-rendering:auto;shape-rendering:auto;text-rendering:auto;enable-background:accumulate" />
      <g
         inkscape:transform-center-y="-0.87994421"
         inkscape:transform-center-x="2.4883267"
         transform="matrix(1.0283685,0.76251545,-0.76251545,1.0283685,387.98617,-275.95141)"
         id="g4176">
        <rect
           style="fill:#000000;fill-opacity:1;stroke:#000000;stroke-width:0.53469574;stroke-linecap:butt;stroke-linejoin:miter;stroke-miterlimit:4;stroke-dasharray:none;stroke-dashoffset:0;stroke-opacity:1"
           id="rect4170"
           width="11.402472"
           height="7.1491685"
           x="163.9321"
           y="418.40814" />
        <circle
           style="fill:#ffffff;fill-opacity:1;stroke:#000000;stroke-width:0.6293416;stroke-linecap:butt;stroke-linejoin:miter;stroke-miterlimit:4;stroke-dasharray:none;stroke-dashoffset:0;stroke-opacity:1"
           id="path4172"
           cx="178.55562"
           cy="421.98273"
           r="5.2908916" />
        <circle
           style="fill:#000000;fill-opacity:1;stroke:#000000;stroke-width:0.6293416;stroke-linecap:butt;stroke-linejoin:miter;stroke-miterlimit:4;stroke-dasharray:none;stroke-dashoffset:0;stroke-opacity:1"
           id="path4174"
           cx="178.55562"
           cy="421.98273"
           r="1.4389329" />
      </g>
      <path
         sodipodi:nodetypes="ccccccccc"
         inkscape:connector-curvature="0"
         id="path3336"
         d="m 95.457861,314.73234 95.276639,-184.20518 73.32728,31.44314 83.8515,-18.12084 87.5949,47.05175 -89.78778,188.9941 -92.01687,-52.21117 -78.71262,17.77087 z"
         style="fill:none;fill-opacity:1;fill-rule:evenodd;stroke:#328327;stroke-width:2.20021768;stroke-linecap:butt;stroke-linejoin:miter;stroke-miterlimit:4;stroke-dasharray:none;stroke-opacity:1" />
      <path
         sodipodi:nodetypes="cc"
         inkscape:connector-curvature="0"
         id="path3344"
         d="M 263.12525,161.3391 174.99091,345.455"
         style="fill:none;fill-rule:evenodd;stroke:#328327;stroke-width:2.20000005;stroke-linecap:butt;stroke-linejoin:miter;stroke-miterlimit:4;stroke-dasharray:4.4000001, 4.4000001;stroke-dashoffset:11.87999916;stroke-opacity:1" />
      <path
         inkscape:connector-curvature="0"
         id="path4146"
         d="M 347.91328,143.84946 254.32607,327.36967"
         style="fill:none;fill-rule:evenodd;stroke:#328327;stroke-width:2.20000005;stroke-linecap:butt;stroke-linejoin:miter;stroke-miterlimit:4;stroke-dasharray:4.4000001, 4.4000001;stroke-dashoffset:11.87999916;stroke-opacity:1" />
      <g
         transform="matrix(1.1903068,0,0,1.2618848,-88.393368,-63.634761)"
         id="g4572">
        <g
           transform="translate(15.936818,-18.449386)"
           id="g4578">
          <path
             sodipodi:nodetypes="sssszsssscs"
             inkscape:connector-curvature="0"
             d="m 364.21331,250.8786 c 7.31356,-15.92206 9.80131,-18.4803 16.44525,-27.41822 6.64397,-8.93791 15.94346,-21.34725 17.12114,-31.74741 1.17765,-10.40015 -1.31592,-18.73819 -9.68695,-28.03668 -5.93246,-6.58971 -18.94458,-12.48054 -30.29016,-12.52265 -11.34558,-0.0421 -24.35767,5.97763 -30.29014,12.56735 -8.37102,9.29848 -10.97724,17.84267 -9.79959,28.24284 1.17767,10.40015 10.47717,22.8095 17.12114,31.7474 6.64394,8.93793 9.13169,11.49616 16.44525,27.41823 7.31356,15.92206 6.52334,19.40749 6.52334,19.40749 0,0 -0.90284,-3.73628 6.41072,-19.65835 z"
             style="display:inline;fill:#ffffff;fill-opacity:1;fill-rule:evenodd;stroke:#ff0000;stroke-width:4.80694389;stroke-linecap:butt;stroke-linejoin:miter;stroke-miterlimit:4;stroke-dasharray:none;stroke-opacity:1"
             id="path4537-4" />
          <ellipse
             ry="13.132885"
             rx="14.351284"
             cy="186.353"
             cx="357.74908"
             id="path4533"
             style="display:inline;fill:#ff0000;fill-opacity:1;stroke:#ff0000;stroke-width:3.65486646;stroke-linecap:round;stroke-linejoin:round;stroke-miterlimit:4;stroke-dasharray:none;stroke-dashoffset:11.87999916;stroke-opacity:1" />
        </g>
      </g>
    </g>
  </g>
</svg>
